<?xml version="1.0" encoding="UTF-8" standalone="no"?>
<svg
   xmlns:dc="http://purl.org/dc/elements/1.1/"
   xmlns:cc="http://creativecommons.org/ns#"
   xmlns:rdf="http://www.w3.org/1999/02/22-rdf-syntax-ns#"
   xmlns:svg="http://www.w3.org/2000/svg"
   xmlns="http://www.w3.org/2000/svg"
   version="1.1"
   id="svg1490"
   xml:space="preserve"
   width="1025.3333"
   height="94.106667"
   viewBox="0 0 1025.3333 94.106667"><metadata
     id="metadata1496"><rdf:RDF><cc:Work
         rdf:about=""><dc:format>image/svg+xml</dc:format><dc:type
           rdf:resource="http://purl.org/dc/dcmitype/StillImage" /><dc:title></dc:title></cc:Work></rdf:RDF></metadata><defs
     id="defs1494" /><g
     id="g1498"
     transform="matrix(1.3333333,0,0,-1.3333333,0,94.106667)"><g
       id="g1500"
       transform="scale(0.1)"><path
         d="m 4723.2,572.77 -89.47,-208.75 h 179.68 z m 273.62,-416.012 h -96.92 l -52.94,125.992 h -246.77 l -53.68,-125.992 h -93.93 l 229.62,525.605 h 84.99 l 229.63,-525.605"
         style="fill:#00adef;fill-opacity:1;fill-rule:nonzero;stroke:none"
         id="path1502" /><path
         d="M 5182.45,678.629 V 156.758 h -90.96 v 521.871 h 90.96"
         style="fill:#00adef;fill-opacity:1;fill-rule:nonzero;stroke:none"
         id="path1504" /><path
         d="m 1278.48,168.383 c -24.86,-13.664 -56.42,-20.508 -94.69,-20.508 -29.33,0 -56.42,5.352 -81.28,16.027 -24.87,10.688 -46.44,25.348 -64.74,43.996 -18.29,18.637 -32.56,40.25 -42.84,64.852 -10.274,24.613 -15.41,51.074 -15.41,79.398 0,28.336 5.136,54.915 15.41,79.778 10.28,24.844 24.55,46.711 42.84,65.609 18.3,18.883 40,33.793 65.11,44.735 25.12,10.925 52.33,16.394 81.66,16.394 37.28,0 68.22,-6.215 92.82,-18.637 24.6,-12.429 46.09,-28.828 64.49,-49.203 l -55.92,-60.39 c -13.92,14.41 -28.7,26.211 -44.36,35.414 -15.65,9.191 -34.92,13.797 -57.78,13.797 -16.4,0 -31.56,-3.356 -45.47,-10.067 -13.92,-6.707 -25.85,-15.785 -35.79,-27.219 -9.95,-11.429 -17.78,-24.726 -23.48,-39.882 -5.72,-15.164 -8.57,-31.438 -8.57,-48.832 0,-17.891 2.85,-34.551 8.57,-49.95 5.7,-15.41 13.79,-28.832 24.23,-40.261 10.43,-11.434 22.85,-20.5 37.28,-27.211 14.41,-6.711 30.3,-10.067 47.71,-10.067 21.36,0 40.13,4.586 56.29,13.801 16.14,9.184 31.42,20.984 45.85,35.402 l 54.42,-53.671 c -19.38,-21.875 -41.51,-39.641 -66.35,-53.305"
         style="fill:#00adef;fill-opacity:1;fill-rule:nonzero;stroke:none"
         id="path1506" /><path
         d="m 1684.14,401.363 c -5.93,15.399 -14.2,28.946 -24.83,40.629 -10.62,11.676 -23.21,20.879 -37.79,27.586 -14.57,6.711 -30.73,10.067 -48.51,10.067 -17.79,0 -33.97,-3.356 -48.55,-10.067 -14.57,-6.707 -27.04,-15.785 -37.41,-27.219 -10.37,-11.429 -18.28,-24.726 -23.71,-39.882 -5.43,-15.164 -8.14,-31.438 -8.14,-48.832 0,-17.407 2.96,-33.922 8.89,-49.582 5.91,-15.653 14.19,-29.2 24.81,-40.629 10.63,-11.434 23.22,-20.5 37.79,-27.211 14.57,-6.711 30.51,-10.067 47.79,-10.067 18.27,0 34.7,3.356 49.27,10.067 14.57,6.711 27.05,15.777 37.42,27.211 10.36,11.429 18.27,24.714 23.7,39.89 5.43,15.149 8.16,31.43 8.16,48.824 0,17.399 -2.97,33.797 -8.89,49.215 z m 83.81,-127.488 c -10.69,-24.863 -25.34,-46.602 -43.98,-65.238 -18.64,-18.641 -40.89,-33.426 -66.73,-44.356 -25.85,-10.929 -53.94,-16.406 -84.24,-16.406 -29.83,0 -57.54,5.352 -83.13,16.027 -25.61,10.688 -47.71,25.348 -66.35,43.996 -18.64,18.637 -33.18,40.25 -43.62,64.852 -10.44,24.613 -15.66,51.074 -15.66,79.398 0,28.336 5.34,55.051 16.03,80.149 10.69,25.094 25.35,46.969 43.99,65.609 18.64,18.637 40.75,33.422 66.36,44.364 25.59,10.925 53.54,16.394 83.86,16.394 30.32,0 58.27,-5.34 83.88,-16.027 25.59,-10.696 47.71,-25.348 66.35,-43.985 18.64,-18.636 33.18,-40.386 43.62,-65.23 10.43,-24.863 15.65,-51.445 15.65,-79.777 0,-28.325 -5.35,-54.926 -16.03,-79.77"
         style="fill:#00adef;fill-opacity:1;fill-rule:nonzero;stroke:none"
         id="path1508" /><path
         d="m 2230.1,539.484 c 21.63,12.793 47.37,19.18 77.21,19.18 43.27,0 77.07,-13.039 101.44,-39.137 24.37,-26.093 36.56,-63.25 36.56,-111.457 V 156.824 h -90.96 v 223.137 c 0,31.242 -6.93,55.039 -20.78,71.406 -13.86,16.36 -33.4,24.543 -58.63,24.543 -24.74,0 -44.9,-8.297 -60.49,-24.91 -15.58,-16.621 -23.37,-40.785 -23.37,-72.523 V 156.824 h -90.96 v 223.883 c 0,30.738 -6.93,54.293 -20.78,70.66 -13.86,16.36 -33.4,24.543 -58.63,24.543 -25.23,0 -45.52,-8.676 -60.85,-26.035 -15.34,-17.355 -23.01,-41.406 -23.01,-72.137 V 156.824 h -90.96 v 393.637 h 90.96 v -60.254 c 6.45,9.016 13.41,17.539 20.86,25.57 7.45,8.028 16.01,15.293 25.7,21.817 9.69,6.527 20.62,11.668 32.79,15.429 12.17,3.762 25.7,5.641 40.61,5.641 28.31,0 52.28,-6.387 71.9,-19.18 19.62,-12.789 34.64,-29.718 45.08,-50.781 15.91,21.063 34.68,37.992 56.31,50.781"
         style="fill:#00adef;fill-opacity:1;fill-rule:nonzero;stroke:none"
         id="path1510" /><path
         d="m 2831.52,406.211 c -5.96,15.648 -14.05,28.945 -24.23,39.883 -10.19,10.929 -22.12,19.383 -35.78,25.347 -13.68,5.965 -28.22,8.942 -43.62,8.942 -15.41,0 -30.08,-2.977 -43.99,-8.942 -13.92,-5.964 -26.09,-14.535 -36.52,-25.726 -10.44,-11.18 -18.77,-24.485 -24.98,-39.883 -6.22,-15.406 -9.32,-32.805 -9.32,-52.187 0,-19.387 3.1,-36.782 9.32,-52.192 6.21,-15.406 14.54,-28.703 24.98,-39.883 10.43,-11.179 22.6,-19.754 36.52,-25.715 13.91,-5.964 28.58,-8.953 43.99,-8.953 15.4,0 29.94,2.989 43.62,8.953 13.66,5.961 25.59,14.411 35.78,25.348 10.18,10.93 18.27,24.223 24.23,39.883 5.96,15.652 8.95,33.172 8.95,52.559 0,19.382 -2.99,36.906 -8.95,52.566 z m 84.62,-139.793 c -10.2,-25.348 -23.86,-46.855 -41,-64.492 -17.15,-17.649 -36.79,-30.934 -58.9,-39.887 -22.13,-8.937 -44.86,-13.418 -68.22,-13.418 -32.31,0 -59.15,6.973 -80.51,20.875 -21.38,13.906 -39.03,30.07 -52.94,48.457 l 0.75,-180.41 h -90.96 v 512.918 h 90.96 v -65.598 c 14.37,20.867 32.23,38.391 53.55,52.559 21.31,14.164 47.85,21.242 79.58,21.242 23.3,0 45.86,-4.469 67.68,-13.418 21.82,-8.941 41.29,-22.246 58.39,-39.883 17.1,-17.648 30.87,-39.136 41.28,-64.484 10.42,-25.352 15.62,-54.43 15.62,-87.234 0,-32.805 -5.1,-61.879 -15.28,-87.227"
         style="fill:#00adef;fill-opacity:1;fill-rule:nonzero;stroke:none"
         id="path1512" /><path
         d="m 3094.96,156.824 h -90.95 v 393.637 h 90.95 v -78.785 c 12.41,29.828 30.06,43.75 52.93,61.64 22.85,17.895 51.69,26.098 86.49,24.602 v -95.426 h -5.22 c -19.89,0 -38.02,-3.238 -54.43,-9.687 -16.4,-6.469 -30.56,-16.157 -42.49,-29.082 -11.93,-12.926 -21.13,-29.196 -27.59,-48.832 -6.47,-19.637 -9.69,-42.375 -9.69,-68.211 V 156.824"
         style="fill:#00adef;fill-opacity:1;fill-rule:nonzero;stroke:none"
         id="path1514" /><path
         d="m 3568.38,381.23 c -1.5,14.411 -4.73,27.958 -9.69,40.629 -4.97,12.676 -11.68,23.606 -20.13,32.805 -8.46,9.195 -18.52,16.516 -30.2,21.996 -11.68,5.457 -24.98,8.203 -39.88,8.203 -27.84,0 -50.82,-9.582 -68.97,-28.703 -18.15,-19.14 -29.2,-44.121 -33.17,-74.93 z M 3405.86,247.402 c 20.37,-17.144 45.21,-25.714 74.55,-25.714 22.36,0 41.74,3.976 58.15,11.925 16.4,7.942 32.54,19.629 48.46,35.047 l 52.93,-46.972 c -18.9,-22.372 -41.38,-40.262 -67.47,-53.684 -26.09,-13.418 -57.29,-20.129 -93.57,-20.129 -28.32,0 -54.79,4.973 -79.4,14.914 -24.6,9.938 -45.97,23.852 -64.11,41.754 -18.15,17.891 -32.43,39.379 -42.87,64.484 -10.44,25.094 -15.65,53.051 -15.65,83.871 0,28.332 4.71,54.915 14.16,79.778 9.44,24.84 22.74,46.59 39.89,65.23 17.14,18.637 37.39,33.422 60.76,44.364 23.35,10.925 49.2,16.394 77.54,16.394 31.31,0 58.76,-5.719 82.37,-17.141 23.6,-11.445 43.25,-26.843 58.9,-46.226 15.66,-19.387 27.46,-42.008 35.41,-67.84 7.95,-25.852 11.93,-52.937 11.93,-81.269 0,-3.977 -0.12,-7.954 -0.37,-11.93 -0.26,-3.985 -0.63,-8.192 -1.12,-12.672 h -289.26 c 5.46,-32.313 18.37,-57.027 38.77,-74.184"
         style="fill:#00adef;fill-opacity:1;fill-rule:nonzero;stroke:none"
         id="path1516" /><path
         d="m 4018.68,218.699 c -7.46,-15.406 -17.78,-28.207 -30.95,-38.39 -13.18,-10.192 -28.7,-17.891 -46.59,-23.118 -17.89,-5.214 -37.03,-7.824 -57.41,-7.824 -28.33,0 -57.03,4.977 -86.11,14.914 -29.08,9.942 -56.04,24.602 -80.89,43.985 l 40.26,61.129 c 21.37,-15.911 43.12,-27.954 65.23,-36.149 22.11,-8.203 43.36,-12.305 63.74,-12.305 19.39,0 34.42,3.84 45.11,11.559 10.68,7.699 16.03,18.008 16.03,30.934 v 1.492 c 0,7.457 -2.36,13.906 -7.09,19.383 -4.72,5.461 -11.18,10.308 -19.37,14.539 -8.2,4.215 -17.65,7.949 -28.34,11.187 -10.69,3.219 -21.75,6.574 -33.17,10.059 -14.43,4.476 -28.96,9.441 -43.62,14.914 -14.66,5.469 -27.84,12.547 -39.51,21.246 -11.69,8.687 -21.25,19.383 -28.7,32.055 -7.46,12.675 -11.18,28.453 -11.18,47.339 v 1.497 c 0,18.382 3.59,35.043 10.81,49.949 7.19,14.914 17.14,27.586 29.82,38.019 12.67,10.446 27.58,18.387 44.73,23.867 17.14,5.458 35.41,8.192 54.8,8.192 24.84,0 49.94,-3.977 75.29,-11.926 25.35,-7.953 48.47,-18.891 69.34,-32.805 l -35.79,-64.117 c -18.9,11.434 -38.02,20.512 -57.4,27.219 -19.39,6.711 -37.28,10.066 -53.68,10.066 -17.4,0 -30.94,-3.734 -40.63,-11.191 -9.69,-7.445 -14.54,-16.902 -14.54,-28.324 v -1.492 c 0,-6.965 2.48,-13.043 7.46,-18.27 4.96,-5.219 11.55,-9.949 19.75,-14.156 8.2,-4.238 17.64,-8.203 28.33,-11.938 10.68,-3.722 21.73,-7.332 33.18,-10.804 14.41,-4.481 28.82,-9.696 43.24,-15.661 14.41,-5.96 27.46,-13.304 39.14,-21.992 11.67,-8.699 21.25,-19.265 28.71,-31.687 7.45,-12.422 11.18,-27.578 11.18,-45.473 v -1.492 c 0,-20.875 -3.73,-39.031 -11.18,-54.43"
         style="fill:#00adef;fill-opacity:1;fill-rule:nonzero;stroke:none"
         id="path1518" /><path
         d="m 4383.99,218.699 c -7.46,-15.406 -17.78,-28.207 -30.93,-38.39 -13.18,-10.192 -28.71,-17.891 -46.61,-23.118 -17.89,-5.214 -37.03,-7.824 -57.4,-7.824 -28.33,0 -57.03,4.977 -86.11,14.914 -29.07,9.942 -56.04,24.602 -80.89,43.985 l 40.26,61.129 c 21.36,-15.911 43.11,-27.954 65.23,-36.149 22.11,-8.203 43.36,-12.305 63.75,-12.305 19.38,0 34.41,3.84 45.1,11.559 10.68,7.699 16.03,18.008 16.03,30.934 v 1.492 c 0,7.457 -2.36,13.906 -7.08,19.383 -4.74,5.461 -11.18,10.308 -19.39,14.539 -8.2,4.215 -17.65,7.949 -28.33,11.187 -10.69,3.219 -21.74,6.574 -33.18,10.059 -14.41,4.476 -28.95,9.441 -43.61,14.914 -14.66,5.469 -27.84,12.547 -39.51,21.246 -11.68,8.687 -21.25,19.383 -28.7,32.055 -7.46,12.675 -11.19,28.453 -11.19,47.339 v 1.497 c 0,18.382 3.61,35.043 10.81,49.949 7.21,14.914 17.16,27.586 29.83,38.019 12.67,10.446 27.58,18.387 44.73,23.867 17.15,5.458 35.4,8.192 54.79,8.192 24.85,0 49.96,-3.977 75.31,-11.926 25.34,-7.953 48.45,-18.891 69.33,-32.805 l -35.79,-64.117 c -18.89,11.434 -38.02,20.512 -57.41,27.219 -19.38,6.711 -37.27,10.066 -53.67,10.066 -17.41,0 -30.94,-3.734 -40.63,-11.191 -9.7,-7.445 -14.55,-16.902 -14.55,-28.324 v -1.492 c 0,-6.965 2.49,-13.043 7.46,-18.27 4.96,-5.219 11.56,-9.949 19.76,-14.156 8.2,-4.238 17.63,-8.203 28.33,-11.938 10.68,-3.722 21.74,-7.332 33.18,-10.804 14.41,-4.481 28.82,-9.696 43.24,-15.661 14.41,-5.96 27.45,-13.304 39.14,-21.992 11.67,-8.699 21.24,-19.265 28.7,-31.687 7.46,-12.422 11.18,-27.578 11.18,-45.473 v -1.492 c 0,-20.875 -3.72,-39.031 -11.18,-54.43"
         style="fill:#00adef;fill-opacity:1;fill-rule:nonzero;stroke:none"
         id="path1520" /><path
         d="m 490.328,65.1133 c -20.555,0 -37.281,16.7226 -37.281,37.2777 0,20.558 16.726,37.285 37.281,37.285 20.559,0 37.281,-16.727 37.281,-37.285 0,-20.5551 -16.722,-37.2777 -37.281,-37.2777 M 102.391,565.156 c -20.5551,0 -37.2816,16.727 -37.2816,37.282 0,20.558 16.7265,37.281 37.2816,37.281 20.558,0 37.281,-16.723 37.281,-37.281 0,-20.555 -16.723,-37.282 -37.281,-37.282 M 773.023,408.105 402.852,688.41 c -14.829,11.215 -33.231,17.395 -51.817,17.395 -13.187,0 -26.406,-3.11 -38.222,-8.981 -29.383,-14.613 -47.637,-44.074 -47.637,-76.867 -0.024,-19.695 -0.653,-482.391 -0.653,-483.34 0,-34.703 -28.23,-62.9334 -62.933,-62.9334 -34.703,0 -62.938,28.2304 -62.938,62.9334 0,0.824 0.028,290.961 0.059,370.086 39.262,14.934 66.074,53.254 66.074,95.735 0,56.46 -45.933,102.39 -102.394,102.39 C 45.9336,704.828 0,658.898 0,602.438 0,559.578 25.9844,522.102 65.4102,506.934 65.3828,428.133 65.3477,137.441 65.3477,136.617 65.3477,61.4961 126.465,0.378906 201.59,0.378906 c 75.125,0 136.242,61.117194 136.242,136.234094 0,1.336 0.652,483.313 0.652,483.328 0,4.797 2.668,9.102 6.965,11.243 1.731,0.855 3.66,1.312 5.586,1.312 2.719,0 5.414,-0.906 7.582,-2.547 L 728.77,349.664 c 3.113,-2.363 4.976,-6.105 4.976,-10.012 0,-3.906 -1.863,-7.648 -4.973,-10.007 L 543.891,189.648 c -16.098,9.926 -34.465,15.137 -53.563,15.137 -56.461,0 -102.394,-45.93 -102.394,-102.394 C 387.934,45.9336 433.867,0 490.328,0 c 56.461,0 102.391,45.9336 102.391,102.391 0,9.914 -1.41,19.668 -4.207,29.093 l 184.527,139.731 c 21.301,16.137 34.012,41.719 34.012,68.437 0,26.719 -12.719,52.313 -34.028,68.453"
         style="fill:#00aced;fill-opacity:1;fill-rule:nonzero;stroke:none"
         id="path1522" /><path
         d="m 5311.73,343.57 v 88.828 h 220.99 V 343.57 h -220.99"
         style="fill:#00adef;fill-opacity:1;fill-rule:nonzero;stroke:none"
         id="path1524" /><path
         d="m 5982.96,681.781 h 99.29 L 5864.98,155.418 h -80.61 l -217.28,526.363 h 101.53 l 157.57,-401.699 156.77,401.699"
         style="fill:#00adef;fill-opacity:1;fill-rule:nonzero;stroke:none"
         id="path1526" /><path
         d="m 6151.7,159.145 v 394.25 h 91.08 v -394.25 z m -3.73,454.691 v 85.894 h 97.8 v -85.894 h -97.8"
         style="fill:#00adef;fill-opacity:1;fill-rule:nonzero;stroke:none"
         id="path1528" /><path
         d="m 6610.06,221.105 c -7.48,-15.445 -17.83,-28.261 -30.98,-38.457 -13.22,-10.195 -28.76,-17.89 -46.68,-23.14 -17.91,-5.188 -37.08,-7.813 -57.5,-7.813 -28.36,0 -57.12,4.946 -86.24,14.895 -29.12,9.953 -56.13,24.664 -81.01,44.078 l 40.32,61.23 c 21.4,-15.933 43.2,-28.019 65.33,-36.199 22.16,-8.242 43.43,-12.332 63.85,-12.332 19.42,0 34.47,3.844 45.18,11.539 10.68,7.75 16.03,18.071 16.03,31.012 v 1.465 c 0,7.508 -2.36,13.98 -7.09,19.414 -4.73,5.492 -11.2,10.316 -19.41,14.59 -8.21,4.211 -17.67,7.937 -28.36,11.172 -10.71,3.234 -21.79,6.593 -33.24,10.074 -14.44,4.515 -29,9.461 -43.68,14.957 -14.68,5.492 -27.87,12.574 -39.56,21.305 -11.72,8.668 -21.27,19.414 -28.75,32.05 -7.48,12.7 -11.2,28.508 -11.2,47.434 v 1.527 c 0,18.375 3.6,35.043 10.83,50 7.21,14.957 17.16,27.594 29.85,38.094 12.7,10.441 27.63,18.375 44.81,23.871 17.16,5.492 35.47,8.242 54.89,8.242 24.87,0 50.03,-4.031 75.39,-11.968 25.4,-7.997 48.54,-18.922 69.45,-32.844 l -35.84,-64.223 c -18.93,11.418 -38.09,20.512 -57.51,27.227 -19.38,6.718 -37.33,10.136 -53.75,10.136 -17.43,0 -30.98,-3.785 -40.69,-11.234 -9.71,-7.445 -14.56,-16.91 -14.56,-28.387 v -1.465 c 0,-6.96 2.5,-13.066 7.48,-18.316 4.97,-5.187 11.57,-9.949 19.78,-14.16 8.21,-4.277 17.67,-8.242 28.39,-11.969 10.68,-3.722 21.76,-7.324 33.21,-10.805 14.43,-4.515 28.87,-9.707 43.31,-15.691 14.44,-5.98 27.5,-13.309 39.19,-22.035 11.69,-8.731 21.28,-19.293 28.76,-31.746 7.45,-12.395 11.2,-27.594 11.2,-45.543 v -1.465 c 0,-20.941 -3.75,-39.07 -11.2,-54.52"
         style="fill:#00adef;fill-opacity:1;fill-rule:nonzero;stroke:none"
         id="path1530" /><path
         d="m 6698.03,159.145 v 394.25 h 91.09 v -394.25 z m -3.72,454.691 v 85.894 h 97.8 v -85.894 h -97.8"
         style="fill:#00adef;fill-opacity:1;fill-rule:nonzero;stroke:none"
         id="path1532" /><path
         d="m 7184.81,404.07 c -5.92,15.383 -14.22,28.938 -24.85,40.66 -10.65,11.719 -23.25,20.879 -37.85,27.657 -14.59,6.715 -30.79,10.07 -48.59,10.07 -17.83,0 -34.04,-3.355 -48.63,-10.07 -14.59,-6.778 -27.07,-15.813 -37.45,-27.289 -10.38,-11.418 -18.31,-24.789 -23.75,-39.926 -5.43,-15.203 -8.15,-31.504 -8.15,-48.902 0,-17.461 2.96,-34.004 8.89,-49.696 5.95,-15.629 14.22,-29.242 24.84,-40.656 10.66,-11.477 23.26,-20.512 37.85,-27.227 14.59,-6.777 30.56,-10.136 47.86,-10.136 18.32,0 34.77,3.359 49.36,10.136 14.59,6.715 27.08,15.75 37.46,27.227 10.4,11.414 18.31,24.723 23.74,39.926 5.44,15.199 8.18,31.5 8.18,48.898 0,17.461 -2.99,33.883 -8.91,49.328 z m 83.94,-127.715 c -10.71,-24.906 -25.39,-46.64 -44.04,-65.32 -18.68,-18.683 -40.97,-33.457 -66.82,-44.445 -25.92,-10.926 -54.03,-16.422 -84.37,-16.422 -29.88,0 -57.63,5.375 -83.27,16.059 -25.64,10.679 -47.77,25.394 -66.45,44.074 -18.65,18.683 -33.21,40.293 -43.68,64.957 -10.44,24.601 -15.66,51.16 -15.66,79.484 0,28.391 5.34,55.129 16.05,80.281 10.69,25.153 25.37,47.067 44.05,65.688 18.65,18.68 40.81,33.516 66.45,44.445 25.61,10.926 53.63,16.422 83.97,16.422 30.38,0 58.37,-5.375 84.01,-16.058 25.64,-10.68 47.8,-25.395 66.45,-44.016 18.68,-18.68 33.24,-40.473 43.68,-65.383 10.47,-24.848 15.69,-51.465 15.69,-79.851 0,-28.387 -5.37,-55.004 -16.06,-79.915"
         style="fill:#00adef;fill-opacity:1;fill-rule:nonzero;stroke:none"
         id="path1534" /><path
         d="m 7427.18,159.145 h -91.08 v 394.25 h 91.08 v -61.903 c 6.48,9.586 13.53,18.5 21.22,26.738 7.69,8.305 16.64,15.692 26.8,22.223 10.2,6.531 21.37,11.723 33.52,15.445 12.14,3.786 25.94,5.68 41.33,5.68 44.65,0 79.15,-13.676 103.47,-41.086 24.33,-27.351 36.48,-64.164 36.48,-110.5 V 159.145 h -91.08 v 223.437 c 0,30.828 -7.27,54.516 -21.83,71.184 -14.56,16.605 -35.16,24.968 -61.81,24.968 -26.16,0 -47.38,-8.609 -63.68,-25.703 -16.27,-17.152 -24.42,-41.144 -24.42,-71.914 V 159.145"
         style="fill:#00adef;fill-opacity:1;fill-rule:nonzero;stroke:none"
         id="path1536" /><path
         d="m 625.609,30.4258 h 3.004 c 3.508,0 6.344,1.168 6.344,4.0039 0,2.5039 -1.84,4.1758 -5.844,4.1758 -1.668,0 -2.836,-0.168 -3.504,-0.336 z m -0.168,-15.5235 h -6.339 v 27.3711 c 2.5,0.5039 6.003,0.836 10.511,0.836 5.176,0 7.508,-0.836 9.516,-2.0039 1.504,-1.1641 2.672,-3.336 2.672,-6.0078 0,-3.0039 -2.34,-5.3399 -5.676,-6.3438 v -0.332 c 2.668,-1 4.172,-3.0039 5.008,-6.6758 0.836,-4.1719 1.332,-5.8438 2,-6.8438 h -6.84 c -0.836,1 -1.336,3.504 -2.172,6.6758 -0.504,3.0039 -2.168,4.3399 -5.672,4.3399 h -3.008 z m -16.855,14.3555 c 0,-12.1836 9.012,-21.86717 21.363,-21.86717 12.02,0 20.86,9.68357 20.86,21.69917 0,12.1836 -8.84,22.0313 -21.028,22.0313 -12.183,0 -21.195,-9.8477 -21.195,-21.8633 z m 49.234,0 c 0,-15.5234 -12.179,-27.70311 -28.039,-27.70311 -15.687,0 -28.207,12.17971 -28.207,27.70311 0,15.1836 12.52,27.3711 28.207,27.3711 15.86,0 28.039,-12.1875 28.039,-27.3711"
         style="fill:#00aced;fill-opacity:1;fill-rule:nonzero;stroke:none"
         id="path1538" /></g></g></svg>
